<svg width="194" height="194" viewBox="0 0 194 194" fill="none" xmlns="http://www.w3.org/2000/svg">
<circle cx="97" cy="97" r="97" fill="#D8EFFE"/>
<path d="M86 115.5H74.75C72.2877 115.5 69.8495 115.015 67.5747 114.073C65.2998 113.13 63.2328 111.749 61.4917 110.008C57.9754 106.492 56 101.723 56 96.75C56 91.7772 57.9754 87.0081 61.4917 83.4917C65.0081 79.9754 69.7772 78 74.75 78H86M108.5 78H119.75C122.212 78 124.65 78.485 126.925 79.4273C129.2 80.3695 131.267 81.7506 133.008 83.4917C134.749 85.2328 136.13 87.2998 137.073 89.5747C138.015 91.8495 138.5 94.2877 138.5 96.75C138.5 99.2123 138.015 101.65 137.073 103.925C136.13 106.2 134.749 108.267 133.008 110.008C131.267 111.749 129.2 113.13 126.925 114.073C124.65 115.015 122.212 115.5 119.75 115.5H108.5V78Z" stroke="#F2994A" stroke-width="5" stroke-linecap="round" stroke-linejoin="round"/>
<path d="M82.25 96.75H112.25" stroke="#F2994A" stroke-width="5" stroke-linecap="round" stroke-linejoin="round"/>
</svg>
