<svg width="1511" height="1854" viewBox="0 0 1511 1854" fill="none" xmlns="http://www.w3.org/2000/svg">
<g filter="url(#filter0_d)">
<rect x="216" y="228" width="1087" height="1153" rx="40" fill="white"/>
</g>
<rect x="281" y="314" width="900" height="105" rx="20" fill="#CCE1F2"/>
<g filter="url(#filter1_d)">
<rect x="730" y="726" width="777" height="437" rx="20" fill="white"/>
</g>
<g filter="url(#filter2_d)">
<rect x="40" y="40" width="274" height="274" rx="50" fill="white"/>
</g>
<g filter="url(#filter3_d)">
<rect x="730" y="1299" width="777" height="437" rx="20" fill="white"/>
</g>
<rect x="289" y="512" width="367" height="773" rx="20" fill="#FFC2D7"/>
<rect x="328" y="711" width="289" height="45" rx="22.5" fill="#84CEFF"/>
<rect x="328" y="345" width="402" height="31" rx="15.5" fill="#84CEFF"/>
<rect x="785" y="808" width="518" height="45" rx="22.5" fill="#FFB41D"/>
<rect x="785" y="1381" width="518" height="45" rx="22.5" fill="#FFB41D"/>
<rect x="785" y="1051" width="634" height="22" rx="11" fill="#C9C8CE"/>
<rect x="785" y="1051" width="634" height="22" rx="11" fill="#C9C8CE"/>
<rect x="785" y="1051" width="634" height="22" rx="11" fill="#C9C8CE"/>
<rect x="785" y="1624" width="634" height="22" rx="11" fill="#C9C8CE"/>
<rect x="785" y="1624" width="634" height="22" rx="11" fill="#C9C8CE"/>
<rect x="785" y="1624" width="634" height="22" rx="11" fill="#C9C8CE"/>
<rect x="785" y="989" width="634" height="22" rx="11" fill="#C9C8CE"/>
<rect x="785" y="989" width="634" height="22" rx="11" fill="#C9C8CE"/>
<rect x="785" y="989" width="634" height="22" rx="11" fill="#C9C8CE"/>
<rect x="785" y="1562" width="634" height="22" rx="11" fill="#C9C8CE"/>
<rect x="785" y="1562" width="634" height="22" rx="11" fill="#C9C8CE"/>
<rect x="785" y="1562" width="634" height="22" rx="11" fill="#C9C8CE"/>
<rect x="785" y="922" width="634" height="22" rx="11" fill="#C9C8CE"/>
<rect x="785" y="922" width="634" height="22" rx="11" fill="#C9C8CE"/>
<rect x="785" y="922" width="634" height="22" rx="11" fill="#C9C8CE"/>
<rect x="785" y="1495" width="634" height="22" rx="11" fill="#C9C8CE"/>
<rect x="785" y="1495" width="634" height="22" rx="11" fill="#C9C8CE"/>
<rect x="785" y="1495" width="634" height="22" rx="11" fill="#C9C8CE"/>
<rect x="328" y="596" width="190" height="45" rx="22.5" fill="white"/>
<rect x="328" y="826" width="289" height="45" rx="22.5" fill="#84CEFF"/>
<rect x="328" y="944" width="289" height="45" rx="22.5" fill="#84CEFF"/>
<rect x="328" y="1062" width="289" height="45" rx="22.5" fill="#84CEFF"/>
<rect x="328" y="1180" width="289" height="45" rx="22.5" fill="#84CEFF"/>
<circle cx="588.5" cy="620.5" r="28.5" fill="white"/>
<circle cx="1069" cy="373" r="13" fill="white"/>
<circle cx="1110" cy="373" r="13" fill="white"/>
<circle cx="1152" cy="373" r="13" fill="white"/>
<g filter="url(#filter4_d)">
<rect x="472" y="1520" width="274" height="274" rx="50" fill="white"/>
</g>
<defs>
<filter id="filter0_d" x="166" y="182" width="1187" height="1253" filterUnits="userSpaceOnUse" color-interpolation-filters="sRGB">
<feFlood flood-opacity="0" result="BackgroundImageFix"/>
<feColorMatrix in="SourceAlpha" type="matrix" values="0 0 0 0 0 0 0 0 0 0 0 0 0 0 0 0 0 0 127 0"/>
<feOffset dy="4"/>
<feGaussianBlur stdDeviation="25"/>
<feColorMatrix type="matrix" values="0 0 0 0 0 0 0 0 0 0 0 0 0 0 0 0 0 0 0.25 0"/>
<feBlend mode="normal" in2="BackgroundImageFix" result="effect1_dropShadow"/>
<feBlend mode="normal" in="SourceGraphic" in2="effect1_dropShadow" result="shape"/>
</filter>
<filter id="filter1_d" x="726" y="726" width="785" height="445" filterUnits="userSpaceOnUse" color-interpolation-filters="sRGB">
<feFlood flood-opacity="0" result="BackgroundImageFix"/>
<feColorMatrix in="SourceAlpha" type="matrix" values="0 0 0 0 0 0 0 0 0 0 0 0 0 0 0 0 0 0 127 0"/>
<feOffset dy="4"/>
<feGaussianBlur stdDeviation="2"/>
<feColorMatrix type="matrix" values="0 0 0 0 0 0 0 0 0 0 0 0 0 0 0 0 0 0 0.25 0"/>
<feBlend mode="normal" in2="BackgroundImageFix" result="effect1_dropShadow"/>
<feBlend mode="normal" in="SourceGraphic" in2="effect1_dropShadow" result="shape"/>
</filter>
<filter id="filter2_d" x="0" y="0" width="374" height="374" filterUnits="userSpaceOnUse" color-interpolation-filters="sRGB">
<feFlood flood-opacity="0" result="BackgroundImageFix"/>
<feColorMatrix in="SourceAlpha" type="matrix" values="0 0 0 0 0 0 0 0 0 0 0 0 0 0 0 0 0 0 127 0"/>
<feOffset dx="10" dy="10"/>
<feGaussianBlur stdDeviation="25"/>
<feColorMatrix type="matrix" values="0 0 0 0 0 0 0 0 0 0 0 0 0 0 0 0 0 0 0.25 0"/>
<feBlend mode="normal" in2="BackgroundImageFix" result="effect1_dropShadow"/>
<feBlend mode="normal" in="SourceGraphic" in2="effect1_dropShadow" result="shape"/>
</filter>
<filter id="filter3_d" x="726" y="1299" width="785" height="445" filterUnits="userSpaceOnUse" color-interpolation-filters="sRGB">
<feFlood flood-opacity="0" result="BackgroundImageFix"/>
<feColorMatrix in="SourceAlpha" type="matrix" values="0 0 0 0 0 0 0 0 0 0 0 0 0 0 0 0 0 0 127 0"/>
<feOffset dy="4"/>
<feGaussianBlur stdDeviation="2"/>
<feColorMatrix type="matrix" values="0 0 0 0 0 0 0 0 0 0 0 0 0 0 0 0 0 0 0.25 0"/>
<feBlend mode="normal" in2="BackgroundImageFix" result="effect1_dropShadow"/>
<feBlend mode="normal" in="SourceGraphic" in2="effect1_dropShadow" result="shape"/>
</filter>
<filter id="filter4_d" x="432" y="1480" width="374" height="374" filterUnits="userSpaceOnUse" color-interpolation-filters="sRGB">
<feFlood flood-opacity="0" result="BackgroundImageFix"/>
<feColorMatrix in="SourceAlpha" type="matrix" values="0 0 0 0 0 0 0 0 0 0 0 0 0 0 0 0 0 0 127 0"/>
<feOffset dx="10" dy="10"/>
<feGaussianBlur stdDeviation="25"/>
<feColorMatrix type="matrix" values="0 0 0 0 0 0 0 0 0 0 0 0 0 0 0 0 0 0 0.25 0"/>
<feBlend mode="normal" in2="BackgroundImageFix" result="effect1_dropShadow"/>
<feBlend mode="normal" in="SourceGraphic" in2="effect1_dropShadow" result="shape"/>
</filter>
</defs>
</svg>
