<svg width="194" height="194" viewBox="0 0 194 194" fill="none" xmlns="http://www.w3.org/2000/svg">
<circle cx="97" cy="97" r="97" fill="#D8EFFE"/>
<path d="M132.9 74.2002H60.1C55.0742 74.2002 51 78.2744 51 83.3002V128.8C51 133.826 55.0742 137.9 60.1 137.9H132.9C137.926 137.9 142 133.826 142 128.8V83.3002C142 78.2744 137.926 74.2002 132.9 74.2002Z" stroke="#219653" stroke-width="5" stroke-linecap="round" stroke-linejoin="round"/>
<path d="M114.7 137.9V65.1C114.7 62.6865 113.741 60.3719 112.034 58.6653C110.328 56.9587 108.013 56 105.6 56H87.3998C84.9863 56 82.6717 56.9587 80.9651 58.6653C79.2586 60.3719 78.2998 62.6865 78.2998 65.1V137.9" stroke="#219653" stroke-width="5" stroke-linecap="round" stroke-linejoin="round"/>
</svg>
