<svg width="63" height="62" viewBox="0 0 63 62" fill="none" xmlns="http://www.w3.org/2000/svg">
<path d="M31.3681 59.1424C46.928 59.1424 59.5418 46.5745 59.5418 31.0712C59.5418 15.5679 46.928 3 31.3681 3C15.8082 3 3.19434 15.5679 3.19434 31.0712C3.19434 46.5745 15.8082 59.1424 31.3681 59.1424Z" fill="#E0E0E0" stroke="black" stroke-width="5" stroke-linecap="round" stroke-linejoin="round"/>
<path d="M23.167 22.6498C23.8294 20.7737 25.1368 19.1917 26.8576 18.184C28.5785 17.1763 30.6018 16.808 32.5691 17.1442C34.5364 17.4804 36.3208 18.4995 37.6063 20.021C38.8917 21.5424 39.5953 23.4681 39.5923 25.4569C39.5923 31.0711 31.1402 33.8782 31.1402 33.8782" fill="#E0E0E0"/>
<path d="M23.167 22.6498C23.8294 20.7737 25.1368 19.1917 26.8576 18.184C28.5785 17.1763 30.6018 16.808 32.5691 17.1442C34.5364 17.4804 36.3208 18.4995 37.6063 20.021C38.8917 21.5424 39.5953 23.4681 39.5923 25.4569C39.5923 31.0711 31.1402 33.8782 31.1402 33.8782" stroke="black" stroke-width="5" stroke-linecap="round" stroke-linejoin="round"/>
<path d="M31.3682 45.1069H31.3961" stroke="black" stroke-width="5" stroke-linecap="round" stroke-linejoin="round"/>
</svg>
