<svg width="194" height="194" viewBox="0 0 194 194" fill="none" xmlns="http://www.w3.org/2000/svg">
<circle cx="97" cy="97" r="97" fill="#D8EFFE"/>
<path d="M95 135C116.539 135 134 117.539 134 96C134 74.4609 116.539 57 95 57C73.4609 57 56 74.4609 56 96C56 117.539 73.4609 135 95 135Z" stroke="#EB5757" stroke-width="4" stroke-linecap="round" stroke-linejoin="round"/>
<path d="M56 96H134" stroke="#EB5757" stroke-width="4" stroke-linecap="round" stroke-linejoin="round"/>
<path d="M94.5 57C104.192 67.6796 109.701 81.5389 110 96C109.701 110.461 104.192 124.32 94.5 135C84.8075 124.32 79.2993 110.461 79 96C79.2993 81.5389 84.8075 67.6796 94.5 57V57Z" stroke="#EB5757" stroke-width="4" stroke-linecap="round" stroke-linejoin="round"/>
</svg>
